<svg width="100" height="31" viewBox="0 0 100 31" fill="none" xmlns="http://www.w3.org/2000/svg">
<rect width="99.1334" height="30.3469" rx="5.05782" fill="white"/>
<rect x="0.505782" y="0.505782" width="98.1218" height="29.3354" rx="4.55204" stroke="#595A5B" stroke-opacity="0.6" stroke-width="1.01156"/>
<path d="M9.78333 12.1387L19.899 12.1387" stroke="#595A5B" stroke-opacity="0.6" stroke-width="1.01156" stroke-linecap="round"/>
<path d="M11.3007 15.1738H18.3816" stroke="#595A5B" stroke-opacity="0.6" stroke-width="1.01156" stroke-linecap="round"/>
<path d="M12.818 18.209H16.3585" stroke="#595A5B" stroke-opacity="0.6" stroke-width="1.01156" stroke-linecap="round"/>
<path d="M35.0308 19.6738V10.8456H40.5053V11.9923H36.3628V14.6821H40.1131V15.8244H36.3628V19.6738H35.0308ZM42.0399 19.6738V13.0527H43.3288V19.6738H42.0399ZM42.6908 12.0311C42.4667 12.0311 42.2741 11.9563 42.1132 11.8069C41.9551 11.6546 41.8761 11.4735 41.8761 11.2638C41.8761 11.0511 41.9551 10.8701 42.1132 10.7206C42.2741 10.5683 42.4667 10.4922 42.6908 10.4922C42.915 10.4922 43.1061 10.5683 43.2641 10.7206C43.4251 10.8701 43.5055 11.0511 43.5055 11.2638C43.5055 11.4735 43.4251 11.6546 43.2641 11.8069C43.1061 11.9563 42.915 12.0311 42.6908 12.0311ZM46.3516 10.8456V19.6738H45.0628V10.8456H46.3516ZM51.1763 13.0527V14.0872H47.5597V13.0527H51.1763ZM48.5296 11.4664H49.8185V17.7297C49.8185 17.9797 49.8558 18.168 49.9306 18.2944C50.0053 18.418 50.1015 18.5028 50.2194 18.5487C50.3401 18.5919 50.4708 18.6134 50.6116 18.6134C50.7151 18.6134 50.8056 18.6062 50.8832 18.5919C50.9608 18.5775 51.0211 18.566 51.0643 18.5574L51.297 19.6221C51.2223 19.6508 51.116 19.6796 50.978 19.7083C50.8401 19.7399 50.6677 19.7572 50.4608 19.76C50.1217 19.7658 49.8055 19.7054 49.5124 19.579C49.2193 19.4525 48.9822 19.2571 48.8012 18.9927C48.6201 18.7284 48.5296 18.3964 48.5296 17.997V11.4664ZM55.3846 19.8075C54.7323 19.8075 54.1704 19.6681 53.6991 19.3893C53.2307 19.1077 52.8686 18.7126 52.6129 18.2039C52.36 17.6924 52.2335 17.0932 52.2335 16.4064C52.2335 15.7282 52.36 15.1304 52.6129 14.6131C52.8686 14.0959 53.225 13.6921 53.6819 13.4018C54.1417 13.1116 54.6791 12.9665 55.2941 12.9665C55.6677 12.9665 56.0298 13.0282 56.3804 13.1518C56.731 13.2754 57.0456 13.4694 57.3244 13.7338C57.6031 13.9981 57.823 14.3416 57.9839 14.764C58.1449 15.1836 58.2253 15.6937 58.2253 16.2943V16.7512H52.962V15.7856H56.9623C56.9623 15.4465 56.8933 15.1462 56.7554 14.8847C56.6174 14.6203 56.4235 14.412 56.1734 14.2597C55.9263 14.1073 55.6361 14.0312 55.3027 14.0312C54.9406 14.0312 54.6245 14.1203 54.3544 14.2985C54.0871 14.4738 53.8802 14.7037 53.7336 14.9882C53.5899 15.2698 53.5181 15.5758 53.5181 15.9063V16.6607C53.5181 17.1032 53.5957 17.4797 53.7509 17.7901C53.9089 18.1004 54.1288 18.3375 54.4104 18.5013C54.692 18.6623 55.0211 18.7427 55.3975 18.7427C55.6418 18.7427 55.8645 18.7082 56.0657 18.6393C56.2668 18.5674 56.4407 18.4611 56.5873 18.3203C56.7338 18.1795 56.8459 18.0056 56.9235 17.7987L58.1434 18.0185C58.0457 18.3778 57.8704 18.6924 57.6175 18.9626C57.3675 19.2298 57.0528 19.4382 56.6735 19.5876C56.297 19.7342 55.8674 19.8075 55.3846 19.8075ZM59.6554 19.6738V13.0527H60.9011V14.1045H60.9701C61.0908 13.7481 61.3035 13.4679 61.6081 13.2639C61.9156 13.057 62.2633 12.9535 62.6513 12.9535C62.7317 12.9535 62.8266 12.9564 62.9358 12.9622C63.0479 12.9679 63.1355 12.9751 63.1987 12.9837V14.2166C63.147 14.2022 63.055 14.1864 62.9228 14.1691C62.7906 14.149 62.6585 14.139 62.5263 14.139C62.2216 14.139 61.9501 14.2036 61.7116 14.3329C61.4759 14.4594 61.2891 14.6361 61.1512 14.8631C61.0132 15.0873 60.9443 15.3431 60.9443 15.6304V19.6738H59.6554Z" fill="#595A5B" fill-opacity="0.6"/>
<path d="M78.2228 12.644L83.2806 17.8283L88.3384 12.5176" stroke="#595A5B" stroke-opacity="0.6" stroke-width="1.01156" stroke-linecap="round" stroke-linejoin="round"/>
</svg>
