<svg width="478" height="425" viewBox="0 0 478 425" fill="none" xmlns="http://www.w3.org/2000/svg">
<path d="M67.4207 199.979L177.581 153.863L208.749 144.682C216.47 145.216 232.767 149.101 236.183 160.373C239.599 171.646 231.415 185.779 226.896 191.436L142.996 228.798C105.102 245.985 26.5598 282.386 15.5432 290.499C4.52651 298.612 8.88945 312.453 12.448 318.36C19.8776 328.522 32.4095 328.358 37.7467 327.006L137.339 279.716C151.856 275.104 162.033 290.888 165.307 299.357C170.601 307.725 165.449 321.417 162.212 327.217C148.157 334.085 118.34 349.186 111.508 354.651C104.676 360.117 106.812 373.581 108.733 379.63C113.686 391.073 129.513 391.016 136.807 389.557C214.766 353.155 372.627 278.623 380.398 271.706C388.169 264.789 385.557 251.531 383.279 245.767C375.081 235.52 360.365 236.089 354.031 237.655C330.832 248.045 282.47 268.996 274.613 269.68C266.757 270.363 259.598 264.77 257 261.888C254.78 253.86 260.629 240.894 263.832 235.415L425.656 144.465C431.242 140.871 440.984 130.802 435.262 119.273C429.541 107.745 414.518 104.65 407.722 104.543L310.478 139.45C306.492 140.304 296.857 139.493 290.196 129.416C283.535 119.34 289.342 107.925 293.078 103.477L347.837 74.5484C364.319 59.2623 361.109 45.5492 357.444 40.6035C350.1 29.6729 333.248 33.701 325.741 37.0814L46.8183 157.815C41.7657 162.44 33.2406 174.979 39.5601 188.13C45.8796 201.281 60.767 201.509 67.4207 199.979Z" fill="#0073FF" fill-opacity="0.15"/>
<path d="M139.4 173.028L119.556 188.903C114.614 192.857 113.754 200.044 117.624 205.052L177.324 282.324C181.322 287.499 188.806 288.348 193.861 284.199L345.92 159.419C350.829 155.391 351.587 148.164 347.62 143.206L331.22 122.707C327.242 117.734 319.997 116.899 314.991 120.837L201.549 210.079C196.721 213.876 189.771 213.252 185.697 208.656L155.326 174.392C151.228 169.768 144.225 169.168 139.4 173.028Z" fill="#0073FF" stroke="white" stroke-width="3.86647"/>
<circle cx="128.052" cy="319.532" r="4.83309" transform="rotate(6.33929 128.052 319.532)" stroke="#FF0E56" stroke-width="1.93324"/>
<circle cx="256.783" cy="88.7464" r="4.83309" transform="rotate(6.33929 256.783 88.7464)" stroke="#FF0E56" stroke-width="1.93324"/>
<circle cx="390.858" cy="230.075" r="4.83309" transform="rotate(6.33929 390.858 230.075)" stroke="#FF0E56" stroke-width="1.93324"/>
<circle cx="435.69" cy="229.22" r="21.2656" transform="rotate(6.33929 435.69 229.22)" fill="#0073FF" fill-opacity="0.15"/>
<path d="M106.242 96.8224C106.682 96.223 107.607 96.3257 107.906 97.0073L111.265 104.675C111.564 105.356 111.013 106.106 110.273 106.023L101.953 105.099C101.213 105.017 100.84 104.165 101.281 103.566L106.242 96.8224Z" stroke="#FF9B06" stroke-width="1.93324"/>
<path d="M268.071 355.998C268.512 355.399 269.437 355.502 269.735 356.183L273.095 363.851C273.393 364.532 272.842 365.281 272.103 365.199L263.783 364.275C263.043 364.193 262.67 363.341 263.111 362.741L268.071 355.998Z" stroke="#FF9B06" stroke-width="1.93324"/>
<rect x="57.5815" y="233.299" width="7.73295" height="7.73295" rx="0.966618" transform="rotate(58.3417 57.5815 233.299)" stroke="#9747FF" stroke-width="1.93324"/>
<rect x="415.188" y="78.5332" width="7.73295" height="7.73295" rx="0.966618" transform="rotate(58.3417 415.188 78.5332)" stroke="#9747FF" stroke-width="1.93324"/>
</svg>
