<svg width="604" height="790" viewBox="0 0 604 790" fill="none" xmlns="http://www.w3.org/2000/svg">
<ellipse cx="316.5" cy="591.5" rx="287.5" ry="37.5" fill="#D9D9D9" fill-opacity="0.17"/>
<path d="M534.568 252.999C542.825 298.563 518.493 333.229 518.493 333.229C502.414 297.501 534.568 252.999 534.568 252.999Z" fill="#73B9FA" fill-opacity="0.36"/>
<path d="M532.459 387.891C504.053 387.06 484.963 367.4 484.963 367.4C508.041 362.087 532.459 387.891 532.459 387.891Z" fill="#73B9FA" fill-opacity="0.36"/>
<path d="M472.683 363.668C467.119 329.992 485.711 302.965 485.711 302.965C497.246 328.937 472.683 363.668 472.683 363.668Z" fill="#73B9FA" fill-opacity="0.36"/>
<path d="M548.142 321.409C548.49 321.938 528.146 335.937 502.706 352.673C477.258 369.416 456.354 382.553 456.004 382.024C455.656 381.496 475.998 367.498 501.446 350.757C526.884 334.021 547.794 320.881 548.142 321.409Z" fill="#73B9FA" fill-opacity="0.36"/>
<path d="M603.625 273.206C603.625 273.206 584.577 322.474 537.645 327.424C537.645 327.424 553.317 285.162 603.625 273.206Z" fill="#73B9FA" fill-opacity="0.36"/>
<path d="M595.96 347.992C595.96 347.992 551.299 376.195 510.664 352.194C510.664 352.194 548.44 327.603 595.96 347.992Z" fill="#73B9FA" fill-opacity="0.36"/>
<path d="M24.2105 516.35C78.7575 489.966 130.99 508.488 130.99 508.488C91.5853 541.284 24.2105 516.35 24.2105 516.35Z" fill="#73B9FA" fill-opacity="0.36"/>
<path d="M195.005 471.718C203.917 507.82 185.824 538.779 185.824 538.779C171.035 511.547 195.005 471.718 195.005 471.718Z" fill="#73B9FA" fill-opacity="0.36"/>
<path d="M185.423 555.569C144.919 574.39 104.329 560.426 104.329 560.426C133.027 536.779 185.423 555.569 185.423 555.569Z" fill="#73B9FA" fill-opacity="0.36"/>
<path d="M105.694 475.255C106.239 474.63 131.02 495.37 161.037 521.574C191.066 547.786 214.957 569.534 214.412 570.16C213.869 570.784 189.091 550.047 159.064 523.835C129.046 497.632 105.15 475.878 105.694 475.255Z" fill="#73B9FA" fill-opacity="0.36"/>
<path d="M25.4739 422.207C25.4739 422.207 94.2634 428.948 116.957 486.379C116.957 486.379 58.1841 481.438 25.4739 422.207Z" fill="#73B9FA" fill-opacity="0.36"/>
<path d="M122.443 405.651C122.443 405.651 173.655 452.067 157.643 511.709C157.643 511.709 113.398 472.707 122.443 405.651Z" fill="#73B9FA" fill-opacity="0.36"/>
<path d="M504.634 79.5332C498.084 86.318 498.274 97.1279 505.059 103.678C511.843 110.228 522.653 110.038 529.203 103.253C535.753 96.4683 535.563 85.6584 528.778 79.1083C521.994 72.5581 511.185 72.7483 504.634 79.5332ZM496.151 58.3316C499.159 56.5133 502.363 55.1347 505.668 54.1959L507.628 44.7767L523.543 44.4975L525.832 53.8412C529.168 54.664 532.419 55.9279 535.49 57.6409L543.532 52.3682L554.984 63.4249L549.998 71.6463C551.817 74.657 553.195 77.8605 554.134 81.1653L563.552 83.1252L563.832 99.0406L554.487 101.331C553.666 104.665 552.401 107.915 550.689 110.986L555.96 119.031L544.905 130.481L536.682 125.496C533.673 127.314 530.469 128.693 527.165 129.632L525.203 139.051L509.289 139.33L506.999 129.985C503.665 129.164 500.415 127.897 497.342 126.187L489.299 131.459L477.848 120.403L482.834 112.18C481.016 109.171 479.636 105.967 478.698 102.662L469.279 100.702L469 84.787L478.345 82.4966C479.166 79.1622 480.432 75.9114 482.143 72.8414L476.871 64.7967L487.926 53.3461L496.151 58.3316Z" fill="#DDE9F5" fill-opacity="0.52"/>
<path d="M556.86 13.8297C554.275 16.5085 554.35 20.775 557.028 23.3594C559.706 25.9452 563.973 25.871 566.559 23.1922C569.143 20.5147 569.069 16.2482 566.39 13.6624C563.713 11.0766 559.446 11.1521 556.86 13.8297ZM553.511 5.46124C554.699 4.74364 555.963 4.19869 557.268 3.8291L558.042 0.110256L564.324 -0.000350952L565.227 3.68882C566.544 4.01255 567.827 4.51163 569.039 5.18877L572.215 3.10746L576.735 7.47106L574.767 10.7164C575.484 11.9048 576.029 13.1701 576.399 14.4744L580.116 15.2473L580.227 21.529L576.539 22.4341C576.214 23.7506 575.715 25.0334 575.039 26.2447L577.12 29.4199L572.757 33.94L569.51 31.972C568.323 32.691 567.058 33.2345 565.753 33.6041L564.979 37.323L558.698 37.4336L557.794 33.7444C556.477 33.4193 555.195 32.9203 553.982 32.2445L550.807 34.3258L546.287 29.9622L548.255 26.7168C547.537 25.5284 546.993 24.2645 546.622 22.9588L542.905 22.1859L542.794 15.9042L546.483 14.9991C546.807 13.6826 547.308 12.3998 547.982 11.1886L545.901 8.01331L550.266 3.49323L553.511 5.46124Z" fill="#DDE9F5" fill-opacity="0.52"/>
<rect x="186.65" y="78.6498" width="306.84" height="505.331" rx="22.3074" fill="white" stroke="#3D4363" stroke-width="17.2996"/>
<rect x="187.105" y="87.3004" width="294.093" height="496.226" rx="14.5681" fill="#E2E2EE" fill-opacity="0.22" stroke="#45438F" stroke-width="18.2101"/>
<rect x="258.213" y="498.238" width="157.953" height="35.7628" rx="7.45059" fill="#51B92C" fill-opacity="0.1"/>
<path d="M306.255 510.114L309.875 520.706H310.021L313.64 510.114H315.761L311.081 523.119H308.814L304.134 510.114H306.255ZM320.712 523.316C319.751 523.316 318.924 523.111 318.229 522.7C317.539 522.285 317.006 521.703 316.629 520.954C316.257 520.2 316.07 519.318 316.07 518.306C316.07 517.307 316.257 516.426 316.629 515.664C317.006 514.902 317.531 514.308 318.204 513.88C318.881 513.452 319.673 513.239 320.579 513.239C321.129 513.239 321.663 513.33 322.179 513.512C322.696 513.694 323.159 513.979 323.57 514.369C323.98 514.758 324.304 515.264 324.541 515.887C324.778 516.505 324.897 517.256 324.897 518.141V518.814H317.144V517.391H323.036C323.036 516.892 322.935 516.45 322.732 516.064C322.528 515.675 322.243 515.368 321.874 515.144C321.51 514.919 321.083 514.807 320.592 514.807C320.058 514.807 319.593 514.938 319.195 515.201C318.801 515.459 318.496 515.798 318.28 516.217C318.069 516.632 317.963 517.082 317.963 517.569V518.681C317.963 519.332 318.077 519.887 318.306 520.344C318.538 520.801 318.862 521.151 319.277 521.392C319.692 521.629 320.177 521.748 320.731 521.748C321.091 521.748 321.419 521.697 321.716 521.595C322.012 521.489 322.268 521.333 322.484 521.125C322.7 520.918 322.865 520.662 322.979 520.357L324.776 520.681C324.632 521.21 324.374 521.673 324.002 522.071C323.633 522.465 323.17 522.772 322.611 522.992C322.056 523.208 321.423 523.316 320.712 523.316ZM327.003 523.119V513.366H328.839V514.915H328.94C329.118 514.39 329.431 513.977 329.88 513.677C330.333 513.372 330.845 513.22 331.417 513.22C331.535 513.22 331.675 513.224 331.836 513.232C332.001 513.241 332.13 513.251 332.223 513.264V515.08C332.147 515.059 332.011 515.036 331.817 515.01C331.622 514.981 331.427 514.966 331.233 514.966C330.784 514.966 330.384 515.061 330.032 515.252C329.685 515.438 329.41 515.698 329.207 516.033C329.004 516.363 328.902 516.74 328.902 517.163V523.119H327.003ZM333.866 523.119V513.366H335.765V523.119H333.866ZM334.825 511.861C334.495 511.861 334.211 511.751 333.974 511.531C333.741 511.306 333.625 511.039 333.625 510.73C333.625 510.417 333.741 510.15 333.974 509.93C334.211 509.706 334.495 509.594 334.825 509.594C335.155 509.594 335.437 509.706 335.67 509.93C335.907 510.15 336.025 510.417 336.025 510.73C336.025 511.039 335.907 511.306 335.67 511.531C335.437 511.751 335.155 511.861 334.825 511.861ZM342.961 513.366V514.89H337.449V513.366H342.961ZM338.96 523.119V512.235C338.96 511.626 339.094 511.12 339.36 510.718C339.627 510.311 339.981 510.009 340.421 509.81C340.861 509.606 341.34 509.505 341.856 509.505C342.237 509.505 342.563 509.537 342.834 509.6C343.105 509.659 343.306 509.714 343.437 509.765L342.993 511.302C342.904 511.277 342.789 511.247 342.65 511.213C342.51 511.175 342.341 511.156 342.142 511.156C341.68 511.156 341.35 511.27 341.151 511.499C340.956 511.727 340.859 512.058 340.859 512.489V523.119H338.96ZM344.92 523.119V513.366H346.818V523.119H344.92ZM345.879 511.861C345.548 511.861 345.265 511.751 345.028 511.531C344.795 511.306 344.679 511.039 344.679 510.73C344.679 510.417 344.795 510.15 345.028 509.93C345.265 509.706 345.548 509.594 345.879 509.594C346.209 509.594 346.49 509.706 346.723 509.93C346.96 510.15 347.079 510.417 347.079 510.73C347.079 511.039 346.96 511.306 346.723 511.531C346.49 511.751 346.209 511.861 345.879 511.861ZM353.576 523.316C352.615 523.316 351.788 523.111 351.094 522.7C350.404 522.285 349.87 521.703 349.493 520.954C349.121 520.2 348.935 519.318 348.935 518.306C348.935 517.307 349.121 516.426 349.493 515.664C349.87 514.902 350.395 514.308 351.068 513.88C351.745 513.452 352.537 513.239 353.443 513.239C353.993 513.239 354.527 513.33 355.043 513.512C355.56 513.694 356.023 513.979 356.434 514.369C356.844 514.758 357.168 515.264 357.405 515.887C357.642 516.505 357.761 517.256 357.761 518.141V518.814H350.008V517.391H355.9C355.9 516.892 355.799 516.45 355.596 516.064C355.392 515.675 355.107 515.368 354.738 515.144C354.374 514.919 353.947 514.807 353.456 514.807C352.922 514.807 352.457 514.938 352.059 515.201C351.665 515.459 351.36 515.798 351.144 516.217C350.933 516.632 350.827 517.082 350.827 517.569V518.681C350.827 519.332 350.941 519.887 351.17 520.344C351.403 520.801 351.726 521.151 352.141 521.392C352.556 521.629 353.041 521.748 353.595 521.748C353.955 521.748 354.283 521.697 354.58 521.595C354.876 521.489 355.132 521.333 355.348 521.125C355.564 520.918 355.729 520.662 355.843 520.357L357.64 520.681C357.496 521.21 357.238 521.673 356.866 522.071C356.497 522.465 356.034 522.772 355.475 522.992C354.92 523.208 354.288 523.316 353.576 523.316ZM363.519 523.31C362.731 523.31 362.029 523.109 361.411 522.706C360.797 522.3 360.314 521.722 359.963 520.973C359.616 520.219 359.442 519.316 359.442 518.261C359.442 517.207 359.618 516.306 359.969 515.556C360.325 514.807 360.812 514.233 361.43 513.836C362.048 513.438 362.748 513.239 363.532 513.239C364.137 513.239 364.624 513.34 364.992 513.543C365.365 513.742 365.652 513.975 365.856 514.242C366.063 514.509 366.224 514.744 366.338 514.947H366.452V510.114H368.351V523.119H366.497V521.602H366.338C366.224 521.809 366.059 522.046 365.843 522.313C365.631 522.579 365.339 522.812 364.967 523.011C364.594 523.21 364.111 523.31 363.519 523.31ZM363.938 521.69C364.484 521.69 364.945 521.546 365.322 521.259C365.703 520.967 365.991 520.562 366.186 520.046C366.385 519.529 366.484 518.928 366.484 518.242C366.484 517.565 366.387 516.972 366.192 516.464C365.997 515.956 365.712 515.561 365.335 515.277C364.958 514.993 364.492 514.852 363.938 514.852C363.366 514.852 362.89 515 362.509 515.296C362.128 515.592 361.84 515.997 361.646 516.509C361.455 517.021 361.36 517.599 361.36 518.242C361.36 518.894 361.457 519.481 361.652 520.001C361.847 520.522 362.135 520.935 362.516 521.24C362.901 521.54 363.375 521.69 363.938 521.69Z" fill="#51B92C"/>
<rect x="219" y="137" width="236" height="308" rx="22" fill="#87C2F9" fill-opacity="0.26"/>
<path d="M252.333 194.667H235.667C233.826 194.667 232.333 193.175 232.333 191.334V174.667C232.333 172.826 233.826 171.334 235.667 171.334H252.333C254.174 171.334 255.667 172.826 255.667 174.667V191.334C255.667 193.175 254.174 194.667 252.333 194.667Z" fill="#16B961"/>
<path d="M242.333 188.454L237.833 184.042L240.167 181.659L242.333 183.777L247.833 178.332L250.167 180.702L242.333 188.452V188.454Z" fill="white"/>
<rect x="269" y="179" width="167" height="9" rx="4.5" fill="#B7B4B4"/>
<path d="M252.333 240.667H235.667C233.826 240.667 232.333 239.175 232.333 237.334V220.667C232.333 218.826 233.826 217.334 235.667 217.334H252.333C254.174 217.334 255.667 218.826 255.667 220.667V237.334C255.667 239.175 254.174 240.667 252.333 240.667Z" fill="#16B961"/>
<path d="M242.333 234.454L237.833 230.042L240.167 227.659L242.333 229.777L247.833 224.332L250.167 226.702L242.333 234.452V234.454Z" fill="white"/>
<rect x="269" y="225" width="167" height="9" rx="4.5" fill="#B7B4B4"/>
<path d="M252.333 286.667H235.667C233.826 286.667 232.333 285.175 232.333 283.334V266.667C232.333 264.826 233.826 263.334 235.667 263.334H252.333C254.174 263.334 255.667 264.826 255.667 266.667V283.334C255.667 285.175 254.174 286.667 252.333 286.667Z" fill="#FF0E56"/>
<path d="M242.333 280.454L237.833 276.042L240.167 273.659L242.333 275.777L247.833 270.332L250.167 272.702L242.333 280.452V280.454Z" fill="white"/>
<path d="M252.333 332.667H235.667C233.826 332.667 232.333 331.175 232.333 329.334V312.667C232.333 310.826 233.826 309.334 235.667 309.334H252.333C254.174 309.334 255.667 310.826 255.667 312.667V329.334C255.667 331.175 254.174 332.667 252.333 332.667Z" fill="#0073FF"/>
<path d="M242.333 326.454L237.833 322.042L240.167 319.659L242.333 321.777L247.833 316.332L250.167 318.702L242.333 326.452V326.454Z" fill="white"/>
<path d="M252.333 378.667H235.667C233.826 378.667 232.333 377.175 232.333 375.334V358.667C232.333 356.826 233.826 355.334 235.667 355.334H252.333C254.174 355.334 255.667 356.826 255.667 358.667V375.334C255.667 377.175 254.174 378.667 252.333 378.667Z" fill="#16B961"/>
<path d="M242.333 372.454L237.833 368.042L240.167 365.659L242.333 367.777L247.833 362.332L250.167 364.702L242.333 372.452V372.454Z" fill="white"/>
<rect x="269" y="317" width="167" height="9" rx="4.5" fill="#B7B4B4"/>
<rect x="269" y="363" width="167" height="9" rx="4.5" fill="#B7B4B4"/>
<rect x="269" y="271" width="167" height="9" rx="4.5" fill="#B7B4B4"/>
<path d="M391.697 435.49L378.096 426.423C376.762 425.534 375.157 427.088 376.003 428.449L388.614 448.736C389.088 449.499 390.124 449.672 390.821 449.104L449.858 401L393.3 435.522C392.805 435.824 392.179 435.812 391.697 435.49Z" fill="#2F88FF"/>
<path d="M425.156 431.202C425.959 431.023 426.758 431.528 426.906 432.338C428.419 440.663 427.054 449.272 423.011 456.739C418.731 464.643 411.737 470.732 403.32 473.885C394.902 477.038 385.629 477.041 377.209 473.894C368.79 470.747 361.792 464.661 357.507 456.76C353.221 448.859 351.937 439.675 353.891 430.901C355.845 422.128 360.905 414.356 368.138 409.02C375.372 403.684 384.29 401.144 393.25 401.867C401.713 402.55 409.673 406.102 415.826 411.91C416.424 412.475 416.412 413.421 415.823 413.996L414.53 415.261C413.942 415.836 413.001 415.823 412.399 415.262C407.057 410.277 400.176 407.23 392.864 406.64C385.057 406.01 377.285 408.224 370.981 412.874C364.678 417.524 360.268 424.297 358.565 431.942C356.863 439.588 357.982 447.591 361.716 454.477C365.451 461.362 371.549 466.665 378.886 469.408C386.223 472.151 394.305 472.148 401.64 469.4C408.975 466.653 415.07 461.346 418.8 454.458C422.293 448.008 423.492 440.579 422.227 433.383C422.085 432.572 422.587 431.776 423.39 431.597L425.156 431.202Z" fill="#2F88FF"/>
<ellipse cx="125.537" cy="773.614" rx="111.537" ry="15.9339" fill="#D9D9D9" fill-opacity="0.17"/>
<path d="M106.416 379.82C110.422 350.684 132.669 353.112 143.292 357.968C147.844 362.065 156.858 371.352 156.494 375.722C156.13 380.093 151.486 382.703 149.21 383.462C145.113 381.641 136.827 379.82 136.463 387.104C136.099 394.388 134.187 392.87 133.276 391.201C128.572 389.532 120.984 388.561 128.268 398.03C135.552 407.499 131.303 410.777 128.268 411.232C109.33 408.319 105.809 389.077 106.416 379.82Z" fill="#0A1D2F"/>
<path d="M139.65 414.418C156.403 413.325 156.039 389.683 153.763 377.998C146.934 375.266 129.179 381.64 122.35 385.282C116.887 388.195 120.074 403.188 122.35 410.321L117.342 418.515L139.65 421.247V414.418Z" fill="#FEAC84"/>
<path d="M86.8402 449.929C89.3896 420.792 107.934 416.543 116.887 418.061C127.965 418.82 151.122 421.703 155.128 427.166C160.136 433.995 195.646 433.995 199.288 437.637C202.201 440.55 204.751 454.329 205.661 460.855L165.599 465.862C160.5 498.276 163.474 535.516 165.599 550.084C136.099 569.751 96.8557 560.707 80.9219 553.726L86.8402 449.929Z" fill="#4441E4"/>
<path d="M172.428 630.663L163.778 551.904L80.0113 553.725L81.3771 556.912C86.4759 606.079 85.6261 619.889 84.5639 620.647C87.8417 635.944 78.0386 716.554 72.7273 754.947L93.6689 752.671L118.708 643.865L125.992 573.301C127.449 585.684 136.614 632.484 141.015 654.336V757.679L161.046 751.305C164.84 720.651 172.428 655.884 172.428 651.149V630.663Z" fill="#0A0363"/>
<path d="M166.965 764.052C160.773 759.318 161.047 752.671 161.957 749.939L141.015 757.223L137.829 779.531H182.443C184.264 772.702 174.704 769.971 166.965 764.052Z" fill="#505D7D"/>
<path d="M102.319 766.784C93.2138 761.685 92.7586 754.947 93.6691 752.216L72.7273 754.947L68.1748 779.531H113.245C113.397 777.406 111.424 771.883 102.319 766.784Z" fill="#505D7D"/>
<path d="M203.84 459.489C203.112 449.291 200.502 441.279 199.288 438.547C204.296 439.913 232.521 392.111 235.253 387.103C237.984 382.096 241.821 379.553 240 375C238.543 371.358 242.179 374.196 244 374.5C244.364 372.315 246.259 370.215 245.5 369.001C249.87 363.902 249 375.002 244.903 388.336C238.074 404.573 223.143 440.186 222.05 446.742C220.958 453.297 216.739 457.364 214.766 458.578L203.84 459.489Z" fill="#FEAC84"/>
<rect x="79" y="275" width="63.8" height="37.7592" rx="10.4163" fill="#87C2F9"/>
<path d="M113.806 323.176C112.804 324.912 110.298 324.912 109.296 323.176L102.53 311.458L120.572 311.458L113.806 323.176Z" fill="#87C2F9"/>
<circle cx="97.5" cy="293.5" r="3.5" fill="#2997FD"/>
<circle cx="109.5" cy="293.5" r="3.5" fill="#2997FD"/>
<circle cx="121.5" cy="293.5" r="3.5" fill="#2997FD"/>
</svg>
