<svg width="26" height="26" viewBox="0 0 26 26" fill="none" xmlns="http://www.w3.org/2000/svg">
<path d="M25 8.524V3.676C25 1.768 24.232 1 22.324 1H17.476C15.568 1 14.8 1.768 14.8 3.676V8.524C14.8 10.432 15.568 11.2 17.476 11.2H22.324C24.232 11.2 25 10.432 25 8.524Z" stroke="#595A5B" stroke-opacity="0.6" stroke-width="2" stroke-linecap="round" stroke-linejoin="round"/>
<path d="M11.2 8.824V3.376C11.2 1.684 10.432 1 8.524 1H3.676C1.768 1 1 1.684 1 3.376V8.812C1 10.516 1.768 11.188 3.676 11.188H8.524C10.432 11.2 11.2 10.516 11.2 8.824Z" stroke="#595A5B" stroke-opacity="0.6" stroke-width="2" stroke-linecap="round" stroke-linejoin="round"/>
<path d="M11.2 22.3248V17.4768C11.2 15.5688 10.432 14.8008 8.524 14.8008H3.676C1.768 14.8008 1 15.5688 1 17.4768V22.3248C1 24.2328 1.768 25.0008 3.676 25.0008H8.524C10.432 25.0008 11.2 24.2328 11.2 22.3248Z" stroke="#595A5B" stroke-opacity="0.6" stroke-width="2" stroke-linecap="round" stroke-linejoin="round"/>
<path d="M16 19.5996H23.2" stroke="#595A5B" stroke-opacity="0.6" stroke-width="2" stroke-linecap="round"/>
<path d="M19.6001 23.2V16" stroke="#595A5B" stroke-opacity="0.6" stroke-width="2" stroke-linecap="round"/>
</svg>
